<svg width="126" height="19" viewBox="0 0 126 19" fill="none" xmlns="http://www.w3.org/2000/svg">
<path d="M9.79004 0.995605C10.9782 0.995605 12.1257 1.25602 13.2324 1.77686C13.7533 2.021 14.1154 2.14307 14.3188 2.14307C14.4653 2.14307 14.7013 2.10645 15.0269 2.0332C15.1326 2.00879 15.2507 1.99658 15.3809 1.99658C15.804 1.99658 16.1743 2.19189 16.4917 2.58252C17.2729 3.52653 17.6636 4.6984 17.6636 6.09814C17.6636 7.08285 17.3258 7.80306 16.6504 8.25879C16.2842 8.50293 15.8732 8.625 15.4175 8.625C15.0024 8.625 14.6647 8.53548 14.4043 8.35645C14.1439 8.17741 13.8916 7.86003 13.6475 7.4043C13.2975 6.76139 13.0127 6.3016 12.793 6.0249C12.5732 5.74007 12.3047 5.48372 11.9873 5.25586C11.1979 4.70247 10.3719 4.42578 9.50928 4.42578C8.67106 4.42578 8.00374 4.73096 7.50732 5.34131C7.01904 5.94352 6.7749 6.75326 6.7749 7.77051C6.7749 9.17025 7.12891 10.452 7.83691 11.6157C8.7972 13.1701 10.1725 13.9473 11.9629 13.9473C12.6221 13.9473 13.2731 13.8374 13.916 13.6177C14.5671 13.3979 15.0716 13.1131 15.4297 12.7632C15.7389 12.4702 15.9912 12.3237 16.1865 12.3237C16.4714 12.3237 16.7155 12.458 16.9189 12.7266C17.1224 12.987 17.2241 13.3044 17.2241 13.6787C17.2241 14.1507 17.0817 14.6797 16.7969 15.2656C16.512 15.8516 16.1702 16.3114 15.7715 16.645C15.6006 16.7834 15.2466 16.9054 14.7095 17.0112C14.4002 17.0682 13.9893 17.2188 13.4766 17.4629C12.2721 18.0407 11.0189 18.3296 9.7168 18.3296C8.35775 18.3296 7.00277 18.0244 5.65186 17.4141C4.08122 16.7061 2.84017 15.6196 1.92871 14.1548C1.03353 12.7306 0.585938 11.2414 0.585938 9.68701C0.585938 7.88037 1.14746 6.23242 2.27051 4.74316C3.24707 3.44922 4.52067 2.46045 6.09131 1.77686C7.2876 1.25602 8.52051 0.995605 9.79004 0.995605ZM35.46 9.56494L37.7671 14.5088C37.9868 14.9645 38.1699 15.2656 38.3164 15.4121C38.4629 15.5505 38.6867 15.644 38.9878 15.6929C39.5737 15.7824 39.8667 16.0794 39.8667 16.584C39.8667 17.1781 39.5086 17.6053 38.7925 17.8657C38.0763 18.1261 36.9045 18.2563 35.2769 18.2563C33.4377 18.2563 32.0745 18.179 31.1875 18.0244C30.7806 17.9512 30.4551 17.8047 30.2109 17.585C29.9749 17.3571 29.8569 17.0845 29.8569 16.7671C29.8569 16.5229 29.918 16.3358 30.04 16.2056C30.1702 16.0672 30.4062 15.9411 30.748 15.8271C31.1305 15.6969 31.3218 15.4772 31.3218 15.168C31.3218 14.6227 30.9922 14.3013 30.333 14.2036C29.625 14.106 28.6281 14.0571 27.3423 14.0571C26.2599 14.0571 25.613 14.1222 25.4014 14.2524C25.2712 14.3338 25.1572 14.4803 25.0596 14.6919C24.9619 14.9035 24.9131 15.1069 24.9131 15.3022C24.9131 15.4813 24.9456 15.5993 25.0107 15.6562C25.084 15.7051 25.3118 15.7905 25.6943 15.9126C26.1908 16.0591 26.439 16.3521 26.439 16.7915C26.439 17.7599 25.2793 18.2441 22.96 18.2441C21.6416 18.2441 20.6732 18.1546 20.0547 17.9756C19.485 17.8047 19.2002 17.4303 19.2002 16.8525C19.2002 16.6003 19.2612 16.4049 19.3833 16.2666C19.5135 16.1283 19.7414 16.0021 20.0669 15.8882C20.5959 15.701 20.9946 15.4406 21.2632 15.1069C21.5399 14.7651 21.9305 14.0409 22.4351 12.9341L24.1562 9.16211C24.791 7.77865 25.2142 6.74512 25.4258 6.06152C25.6455 5.36979 25.7594 4.69434 25.7676 4.03516C25.7757 3.33529 25.8164 2.85107 25.8896 2.58252C25.971 2.30583 26.146 2.03727 26.4146 1.77686C26.9761 1.20719 27.6922 0.922363 28.563 0.922363C29.3849 0.922363 30.1702 1.24382 30.9189 1.88672C31.9606 2.76562 33.4743 5.32503 35.46 9.56494ZM26.9639 11.103H29.3564C29.7959 11.103 30.0156 11.0054 30.0156 10.8101C30.0156 10.5415 29.7104 9.88232 29.1001 8.83252C28.8234 8.35238 28.6118 8.03092 28.4653 7.86816C28.3188 7.7054 28.1642 7.62402 28.0015 7.62402C27.7085 7.62402 27.4644 7.89665 27.269 8.44189C27.2365 8.51514 27.1185 8.80404 26.915 9.30859C26.5732 10.1387 26.4023 10.6351 26.4023 10.7979C26.4023 11.0013 26.5895 11.103 26.9639 11.103ZM49.7163 6.67188V12.2749C49.7163 13.5363 49.8262 14.3501 50.0459 14.7163C50.3145 15.1476 50.88 15.3633 51.7427 15.3633C52.6704 15.3633 53.4028 15.1598 53.9399 14.7529C54.4771 14.346 54.8514 13.7113 55.063 12.8486C55.1851 12.3197 55.4618 12.0552 55.8931 12.0552C56.3244 12.0552 56.6743 12.2505 56.9429 12.6411C57.2196 13.0236 57.3579 13.5241 57.3579 14.1426C57.3579 15.1517 56.9836 16.23 56.2349 17.3774C55.9989 17.7437 55.7913 17.9919 55.6123 18.1221C55.4333 18.2604 55.2176 18.3296 54.9653 18.3296L52.2554 18H43.7227C43.1611 18 42.7664 17.9349 42.5386 17.8047C42.2049 17.6175 42.0381 17.3368 42.0381 16.9624C42.0381 16.7345 42.091 16.5677 42.1968 16.4619C42.3107 16.348 42.5793 16.1893 43.0024 15.9858C43.4663 15.7661 43.7633 15.4569 43.8936 15.0581C43.9993 14.7244 44.0522 13.752 44.0522 12.1406C44.0522 11.3919 44.0319 10.3136 43.9912 8.90576C43.9505 7.55485 43.9261 6.5376 43.918 5.854C43.918 5.20296 43.8651 4.75944 43.7593 4.52344C43.6616 4.2793 43.45 4.10433 43.1245 3.99854C42.5874 3.81136 42.2456 3.66081 42.0991 3.54688C41.8387 3.34342 41.7085 3.11149 41.7085 2.85107C41.7085 2.257 42.2008 1.80534 43.1855 1.49609C44.0238 1.22754 45.1468 1.09326 46.5547 1.09326C48.1335 1.09326 49.3135 1.17464 50.0947 1.3374C51.1038 1.55713 51.6084 1.99658 51.6084 2.65576C51.6084 2.92432 51.5392 3.1237 51.4009 3.25391C51.2707 3.38411 50.9451 3.55908 50.4243 3.77881C50.1151 3.91715 49.9198 4.15316 49.8384 4.48682C49.757 4.82048 49.7163 5.54883 49.7163 6.67188ZM64.4121 1.08105C65.3398 1.08105 66.2147 1.16243 67.0366 1.3252C68.1434 1.54492 68.6968 2.01286 68.6968 2.729C68.6968 2.96501 68.6398 3.14404 68.5259 3.26611C68.4201 3.38005 68.1434 3.55094 67.6958 3.77881C67.3215 3.96598 67.0732 4.37695 66.9512 5.01172C66.8372 5.64648 66.7803 6.88346 66.7803 8.72266C66.7803 11.8314 66.8576 13.756 67.0122 14.4966C67.0692 14.7326 67.1546 14.9157 67.2686 15.0459C67.3906 15.168 67.5981 15.3022 67.8911 15.4487C68.4282 15.6929 68.6968 16.0469 68.6968 16.5107C68.6968 17.1618 68.2004 17.6094 67.2075 17.8535C66.1333 18.1139 64.819 18.2441 63.2646 18.2441C60.6117 18.2441 59.2852 17.7396 59.2852 16.7305C59.2852 16.3643 59.5456 16.0225 60.0664 15.7051C60.4652 15.4609 60.7012 15.1273 60.7744 14.7041C60.929 13.7764 61.0063 11.807 61.0063 8.7959C61.0063 6.71257 60.9006 5.37793 60.689 4.79199C60.575 4.45833 60.3024 4.15723 59.8711 3.88867C59.5374 3.66895 59.3136 3.48584 59.1997 3.33936C59.0858 3.19287 59.0288 3.0057 59.0288 2.77783C59.0288 2.4279 59.1956 2.1512 59.5293 1.94775C59.8711 1.73617 60.4692 1.54899 61.3237 1.38623C62.341 1.18278 63.3704 1.08105 64.4121 1.08105ZM73.0776 12.2505V5.82959C73.0776 4.99951 73.0207 4.47461 72.9067 4.25488C72.7928 4.02702 72.4836 3.84391 71.979 3.70557C71.2466 3.49398 70.8804 3.12777 70.8804 2.60693C70.8804 2.24072 71.035 1.95996 71.3442 1.76465C71.6535 1.56934 72.1011 1.47168 72.687 1.47168C72.8823 1.47168 73.3665 1.48389 74.1396 1.5083H74.8721C76.223 1.50016 77.0124 1.49202 77.2402 1.48389C77.4762 1.46761 78.3063 1.39437 79.7305 1.26416C80.2025 1.21533 80.6338 1.19092 81.0244 1.19092C82.359 1.19092 83.5472 1.46354 84.5889 2.00879C86.4036 2.9528 87.311 4.4502 87.311 6.50098C87.311 8.16113 86.6763 9.4917 85.4067 10.4927C84.2104 11.4285 82.7619 11.8965 81.061 11.8965C80.6297 11.8965 80.1007 11.868 79.4741 11.811C79.1405 11.7866 78.9329 11.7744 78.8516 11.7744C78.6156 11.7744 78.4976 11.9087 78.4976 12.1772V12.2505L78.583 14.2524C78.5993 14.6431 78.6685 14.936 78.7905 15.1313C78.9207 15.3185 79.1812 15.5138 79.5718 15.7173C80.1007 16.0021 80.3652 16.3114 80.3652 16.645C80.3652 17.1577 79.9746 17.5524 79.1934 17.8291C78.4121 18.1058 77.3053 18.2441 75.873 18.2441C72.862 18.2441 71.3564 17.7274 71.3564 16.6938C71.3564 16.4497 71.4215 16.2625 71.5518 16.1323C71.682 16.0021 71.9871 15.8149 72.4673 15.5708C72.7603 15.4162 72.9312 15.2005 72.98 14.9238C73.0288 14.6471 73.0614 13.756 73.0776 12.2505ZM78.583 4.2793V8.42969C78.583 8.74707 78.6522 8.93831 78.7905 9.00342C79.0265 9.11735 79.3236 9.17432 79.6816 9.17432C80.2188 9.17432 80.6704 9.02376 81.0366 8.72266C81.5656 8.29134 81.8301 7.56706 81.8301 6.5498C81.8301 5.49186 81.5208 4.72689 80.9023 4.25488C80.5117 3.95378 80.0397 3.80322 79.4863 3.80322C78.8841 3.80322 78.583 3.96191 78.583 4.2793ZM97.0264 0.995605C97.8646 0.995605 98.9632 1.20312 100.322 1.61816C100.485 1.66699 100.615 1.69141 100.713 1.69141C100.794 1.69141 101.038 1.61816 101.445 1.47168C101.576 1.42285 101.714 1.39844 101.86 1.39844C102.406 1.39844 102.979 1.82975 103.582 2.69238C104.192 3.55501 104.497 4.37695 104.497 5.1582C104.497 5.61393 104.359 6.00049 104.082 6.31787C103.813 6.62712 103.484 6.78174 103.093 6.78174C102.768 6.78174 102.503 6.71663 102.3 6.58643C102.096 6.45622 101.649 6.06966 100.957 5.42676C99.9805 4.5153 99.0202 4.05957 98.0762 4.05957C97.6204 4.05957 97.2542 4.16943 96.9775 4.38916C96.709 4.60889 96.5747 4.89779 96.5747 5.25586C96.5747 5.96387 97.1973 6.49691 98.4424 6.85498C100.127 7.3514 101.205 7.71354 101.677 7.94141C103.752 8.95052 104.79 10.4357 104.79 12.397C104.79 14.1304 104.082 15.5464 102.666 16.645C101.217 17.7681 99.3254 18.3296 96.9897 18.3296C95.9481 18.3296 94.8494 18.2075 93.6938 17.9634C92.5382 17.7111 91.7041 17.4181 91.1914 17.0845C90.8008 16.8241 90.4468 16.2585 90.1294 15.3877C89.8201 14.5088 89.6655 13.6543 89.6655 12.8242C89.6655 12.4255 89.7469 12.1243 89.9097 11.9209C90.1131 11.6605 90.3695 11.5303 90.6787 11.5303C90.988 11.5303 91.285 11.689 91.5698 12.0063C91.7407 12.1854 92.1436 12.7591 92.7783 13.7275C93.0794 14.1833 93.5555 14.5617 94.2065 14.8628C94.8657 15.1639 95.5452 15.3145 96.2451 15.3145C96.8473 15.3145 97.3356 15.2046 97.71 14.9849C98.0843 14.757 98.2715 14.4681 98.2715 14.1182C98.2715 13.7926 98.125 13.5119 97.832 13.2759C97.5391 13.0399 97.063 12.8201 96.4038 12.6167C95.2401 12.2505 94.353 11.9168 93.7427 11.6157C93.1323 11.3065 92.5627 10.9199 92.0337 10.4561C90.7479 9.31673 90.105 8.02279 90.105 6.57422C90.105 5.85807 90.2718 5.16227 90.6055 4.48682C90.9391 3.80322 91.4111 3.21322 92.0215 2.7168C93.3887 1.56934 95.057 0.995605 97.0264 0.995605ZM116.666 0.995605C118.757 0.995605 120.584 1.59375 122.147 2.79004C123.205 3.61198 124.063 4.67806 124.723 5.98828C125.366 7.29036 125.687 8.59245 125.687 9.89453C125.687 11.8151 125.052 13.5322 123.783 15.0459C122.708 16.3317 121.305 17.2554 119.571 17.8169C118.505 18.1587 117.435 18.3296 116.361 18.3296C114.953 18.3296 113.606 18.0366 112.32 17.4507C110.766 16.7427 109.549 15.6725 108.67 14.2402C107.816 12.8568 107.389 11.3309 107.389 9.6626C107.389 7.72575 107.938 6.01676 109.037 4.53564C110.013 3.21729 111.327 2.24886 112.979 1.63037C114.086 1.20719 115.315 0.995605 116.666 0.995605ZM115.506 4.49902C114.823 4.49902 114.282 4.8042 113.883 5.41455C113.574 5.87028 113.419 6.41146 113.419 7.03809C113.419 7.95768 113.606 9.02376 113.98 10.2363C114.355 11.4408 114.827 12.5109 115.396 13.4468C115.649 13.8455 115.958 14.1629 116.324 14.3989C116.699 14.6349 117.077 14.7529 117.459 14.7529C118.078 14.7529 118.574 14.521 118.949 14.0571C119.331 13.5933 119.522 12.9829 119.522 12.2261C119.522 11.2414 119.364 10.1794 119.046 9.04004C118.729 7.90072 118.318 6.92822 117.813 6.12256C117.504 5.62614 117.146 5.23551 116.739 4.95068C116.332 4.66585 115.921 4.5153 115.506 4.49902Z" fill="#A2B2D9"/>
</svg>
