<svg width="65" height="19" viewBox="0 0 65 19" fill="none" xmlns="http://www.w3.org/2000/svg">
<path d="M5.70068 1.3374H12.1338C12.8255 1.31299 13.4562 1.2194 14.0259 1.05664C14.27 0.991536 14.4857 0.958984 14.6729 0.958984C15.332 0.958984 15.9709 1.44727 16.5894 2.42383C17.216 3.40039 17.5293 4.40544 17.5293 5.43896C17.5293 6.14697 17.3136 6.66374 16.8823 6.98926C16.5568 7.2334 16.1662 7.35547 15.7104 7.35547C15.2791 7.35547 14.9048 7.23747 14.5874 7.00146C14.27 6.75732 13.9567 6.35856 13.6475 5.80518C13.3789 5.30062 13.1673 4.97103 13.0127 4.81641C12.8581 4.66178 12.6709 4.58447 12.4512 4.58447C12.1501 4.58447 11.9344 4.71061 11.8042 4.96289C11.674 5.21517 11.6089 5.63021 11.6089 6.20801V13.0439C11.6089 13.7438 11.6821 14.2524 11.8286 14.5698C11.9751 14.8872 12.2518 15.1313 12.6587 15.3022C13.0981 15.4894 13.3952 15.6685 13.5498 15.8394C13.7126 16.0021 13.7939 16.23 13.7939 16.5229C13.7939 17.1089 13.3952 17.5443 12.5977 17.8291C11.8083 18.1139 10.5916 18.2563 8.94775 18.2563C6.92952 18.2563 5.43213 18.0895 4.45557 17.7559C3.63363 17.4792 3.22266 17.0316 3.22266 16.4131C3.22266 16.0794 3.36914 15.819 3.66211 15.6318C3.73535 15.5911 4.02425 15.4935 4.52881 15.3389C4.83805 15.2493 5.04964 15.0785 5.16357 14.8262C5.28564 14.5739 5.3833 14.0897 5.45654 13.3735C5.52165 12.7388 5.58268 11.7134 5.63965 10.2974C5.69661 8.87321 5.7251 7.6403 5.7251 6.59863C5.7251 5.86621 5.66813 5.34538 5.5542 5.03613C5.44027 4.72689 5.25309 4.57227 4.99268 4.57227C4.67529 4.57227 4.36605 4.80013 4.06494 5.25586C3.51969 6.08594 3.0721 6.63525 2.72217 6.90381C2.30713 7.22119 1.9043 7.37988 1.51367 7.37988C1.07422 7.37988 0.712077 7.21712 0.427246 6.8916C0.142415 6.55794 0 6.13477 0 5.62207C0 5.11751 0.113932 4.56413 0.341797 3.96191C0.569661 3.35156 0.874837 2.79004 1.25732 2.27734C1.87581 1.44727 2.48617 1.03223 3.08838 1.03223C3.25114 1.03223 3.43831 1.05664 3.6499 1.10547C4.08936 1.19499 4.44743 1.25602 4.72412 1.28857C5.00895 1.32113 5.33447 1.3374 5.70068 1.3374ZM27.2339 0.995605C28.3 0.995605 29.305 1.14616 30.249 1.44727C30.6722 1.58561 30.9611 1.65479 31.1157 1.65479C31.2785 1.65479 31.6203 1.5612 32.1411 1.37402C32.312 1.31706 32.487 1.28857 32.666 1.28857C33.1217 1.28857 33.5571 1.55713 33.9722 2.09424C34.6395 2.95687 34.9731 3.90088 34.9731 4.92627C34.9731 5.62614 34.7941 6.19173 34.436 6.62305C34.0861 7.05436 33.6222 7.27002 33.0444 7.27002C32.5724 7.27002 32.1086 7.09912 31.6528 6.75732C31.5145 6.65153 31.1768 6.26904 30.6396 5.60986C29.7445 4.51123 28.715 3.96191 27.5513 3.96191C26.4933 3.96191 25.651 4.34847 25.0244 5.12158C24.4059 5.89469 24.0967 6.93636 24.0967 8.24658C24.0967 10.1916 24.5931 11.8477 25.5859 13.2148C25.9603 13.7113 26.4079 14.11 26.9287 14.4111C27.4495 14.7041 27.9663 14.8506 28.479 14.8506C28.9022 14.8506 29.248 14.7122 29.5166 14.4355C29.7933 14.1507 29.9316 13.7886 29.9316 13.3491C29.9316 12.9585 29.8177 12.6818 29.5898 12.519C29.5003 12.4539 29.4149 12.4173 29.3335 12.4092C29.2603 12.3929 29.0283 12.3848 28.6377 12.3848C28.2878 12.3848 27.9948 12.2749 27.7588 12.0552C27.5309 11.8273 27.417 11.5425 27.417 11.2007C27.417 10.5252 27.8646 10.0451 28.7598 9.76025C29.7445 9.45101 30.8797 9.29639 32.1655 9.29639C33.5409 9.29639 34.6965 9.4388 35.6323 9.72363C36.5194 10.0003 36.9629 10.5008 36.9629 11.2251C36.9629 11.5181 36.8612 11.7744 36.6577 11.9941C36.4543 12.2057 36.1898 12.3319 35.8643 12.3726C35.5794 12.4132 35.3923 12.4784 35.3027 12.5679C35.2214 12.6493 35.1359 12.8568 35.0464 13.1904C34.6965 14.4844 34.0129 15.5667 32.9956 16.4375C32.2957 17.0316 31.4494 17.4954 30.4565 17.8291C29.4718 18.1628 28.4342 18.3296 27.3438 18.3296C25.5615 18.3296 23.9258 17.9186 22.4365 17.0967C20.9066 16.2585 19.7428 15.0866 18.9453 13.5811C18.278 12.3278 17.9443 10.9728 17.9443 9.51611C17.9443 8.04313 18.3431 6.64339 19.1406 5.31689C19.987 3.89274 21.1711 2.79411 22.6929 2.021C24.0194 1.3374 25.533 0.995605 27.2339 0.995605ZM42.9199 1.08105C43.8477 1.08105 44.7225 1.16243 45.5444 1.3252C46.6512 1.54492 47.2046 2.01286 47.2046 2.729C47.2046 2.96501 47.1476 3.14404 47.0337 3.26611C46.9279 3.38005 46.6512 3.55094 46.2036 3.77881C45.8293 3.96598 45.5811 4.37695 45.459 5.01172C45.3451 5.64648 45.2881 6.88346 45.2881 8.72266C45.2881 11.8314 45.3654 13.756 45.52 14.4966C45.577 14.7326 45.6624 14.9157 45.7764 15.0459C45.8984 15.168 46.106 15.3022 46.3989 15.4487C46.936 15.6929 47.2046 16.0469 47.2046 16.5107C47.2046 17.1618 46.7082 17.6094 45.7153 17.8535C44.6411 18.1139 43.3268 18.2441 41.7725 18.2441C39.1195 18.2441 37.793 17.7396 37.793 16.7305C37.793 16.3643 38.0534 16.0225 38.5742 15.7051C38.973 15.4609 39.209 15.1273 39.2822 14.7041C39.4368 13.7764 39.5142 11.807 39.5142 8.7959C39.5142 6.71257 39.4084 5.37793 39.1968 4.79199C39.0828 4.45833 38.8102 4.15723 38.3789 3.88867C38.0452 3.66895 37.8215 3.48584 37.7075 3.33936C37.5936 3.19287 37.5366 3.0057 37.5366 2.77783C37.5366 2.4279 37.7035 2.1512 38.0371 1.94775C38.3789 1.73617 38.9771 1.54899 39.8315 1.38623C40.8488 1.18278 41.8783 1.08105 42.9199 1.08105ZM56.9946 3.85205C56.4331 3.85205 56.0872 3.99447 55.957 4.2793C55.8594 4.49089 55.7658 4.90592 55.6763 5.52441C55.5949 6.1429 55.5542 6.70443 55.5542 7.20898C55.5542 7.51009 55.6519 7.71761 55.8472 7.83154C56.0425 7.94548 56.4087 8.00244 56.9458 8.00244C57.3039 8.00244 57.5684 7.93734 57.7393 7.80713C57.9102 7.67692 58.0282 7.45719 58.0933 7.14795C58.2804 6.2609 58.6629 5.81738 59.2407 5.81738C60.2336 5.81738 60.73 7.00553 60.73 9.38184C60.73 10.8874 60.5143 11.9941 60.083 12.7021C59.8226 13.1335 59.4645 13.3491 59.0088 13.3491C58.5286 13.3491 58.252 13.0277 58.1787 12.3848C58.138 11.9697 58.0851 11.6768 58.02 11.5059C57.9631 11.335 57.8491 11.1722 57.6782 11.0176C57.4097 10.7653 57.019 10.6392 56.5063 10.6392C56.1401 10.6392 55.8919 10.7043 55.7617 10.8345C55.6315 10.9647 55.5745 11.2129 55.5908 11.5791C55.5908 11.6442 55.5868 12.0226 55.5786 12.7144C55.5786 14.1222 55.7251 14.9808 56.0181 15.29C56.1157 15.4121 56.2134 15.4935 56.311 15.5342C56.4168 15.5667 56.6854 15.6156 57.1167 15.6807C57.3283 15.7132 57.5073 15.8231 57.6538 16.0103C57.8003 16.1974 57.8735 16.4131 57.8735 16.6572C57.8735 17.2839 57.5073 17.6867 56.7749 17.8657C55.717 18.118 54.2318 18.2441 52.3193 18.2441C50.6429 18.2441 49.4873 18.1465 48.8525 17.9512C48.5677 17.8617 48.3358 17.6989 48.1567 17.4629C47.9777 17.2269 47.8882 16.9665 47.8882 16.6816C47.8882 16.3236 48.0184 16.0347 48.2788 15.8149C48.3439 15.7661 48.5677 15.6644 48.9502 15.5098C49.4059 15.3307 49.6785 14.9157 49.7681 14.2646C49.9146 13.2637 49.9878 10.981 49.9878 7.4165C49.9878 5.87842 49.9349 4.88151 49.8291 4.42578C49.7233 3.97005 49.467 3.65267 49.0601 3.47363C48.6532 3.2946 48.3846 3.13997 48.2544 3.00977C48.1323 2.87142 48.0713 2.67611 48.0713 2.42383C48.0713 2.06576 48.2463 1.76872 48.5962 1.53271C48.9461 1.28857 49.3774 1.1665 49.8901 1.1665C50.2157 1.1665 50.6917 1.19092 51.3184 1.23975C52.6449 1.34554 54.2318 1.39844 56.0791 1.39844C59.0332 1.39844 61.0229 1.31706 62.0483 1.1543C62.1867 1.13802 62.2925 1.12988 62.3657 1.12988C62.6506 1.12988 62.9232 1.29264 63.1836 1.61816C63.8997 2.52962 64.2578 3.53874 64.2578 4.64551C64.2578 5.15007 64.1398 5.5529 63.9038 5.854C63.6678 6.15511 63.3586 6.30566 62.9761 6.30566C62.6912 6.30566 62.4756 6.2487 62.3291 6.13477C62.1826 6.02083 61.8083 5.62207 61.2061 4.93848C60.8398 4.5153 60.3963 4.23861 59.8755 4.1084C59.3628 3.97819 58.4025 3.89274 56.9946 3.85205Z" fill="#A2B2D9"/>
</svg>
