<svg width="17" height="20" viewBox="0 0 17 20" fill="none" xmlns="http://www.w3.org/2000/svg">
<path d="M12.25 15.5V17.375C12.25 18.4106 11.4106 19.25 10.375 19.25H2.875C1.83947 19.25 1 18.4106 1 17.375V7.0625C1 6.02696 1.83947 5.1875 2.875 5.1875H4.75M11.0169 0.5H6.625C5.58947 0.5 4.75 1.33947 4.75 2.375V13.625C4.75 14.6606 5.58947 15.5 6.625 15.5H14.125C15.1606 15.5 16 14.6606 16 13.625V5.41402C16 4.90944 15.7967 4.42615 15.4358 4.07338L12.3277 1.03437C11.9774 0.691812 11.5069 0.5 11.0169 0.5V0.5Z" stroke="#A2B2D9" stroke-linecap="square" stroke-linejoin="round"/>
</svg>
