<svg width="29" height="32" viewBox="0 0 29 32" fill="none" xmlns="http://www.w3.org/2000/svg">
<path d="M27.55 0.986084H1.45C1.06557 0.986561 0.69702 1.1496 0.42519 1.43942C0.153359 1.72925 0.000447714 2.1222 0 2.53208V12.8387H1.93333V3.04741H27.0667V29.8447H1.93333V19.5381H0V30.36C0.000447714 30.7699 0.153359 31.1629 0.42519 31.4527C0.69702 31.7425 1.06557 31.9056 1.45 31.906H27.55C27.9344 31.9056 28.303 31.7425 28.5748 31.4527C28.8466 31.1629 28.9996 30.7699 29 30.36V2.53208C28.9996 2.1222 28.8466 1.72925 28.5748 1.43942C28.303 1.1496 27.9344 0.986561 27.55 0.986084Z" fill="#A2B2D9"/>
<path d="M11.6832 23.3583L13.0502 24.8158L21.1837 16.1439L13.0502 7.47192L11.6832 8.92941L17.483 15.1133H0V17.1746H17.4829L11.6832 23.3583Z" fill="#A2B2D9"/>
</svg>
