<svg width="30" height="30" viewBox="0 0 30 30" fill="none" xmlns="http://www.w3.org/2000/svg">
<path d="M30 15C30 23.2843 23.2843 30 15 30C6.71573 30 0 23.2843 0 15C0 6.71573 6.71573 0 15 0C23.2843 0 30 6.71573 30 15ZM1.26426 15C1.26426 22.586 7.41396 28.7357 15 28.7357C22.586 28.7357 28.7357 22.586 28.7357 15C28.7357 7.41396 22.586 1.26426 15 1.26426C7.41396 1.26426 1.26426 7.41396 1.26426 15Z" fill="#FF0000"/>
<path d="M17.7893 11.2989C18.5633 11.8581 19.1393 12.649 19.4342 13.5571C19.729 14.4653 19.7273 15.4437 19.4293 16.3508C19.1313 17.258 18.5526 18.0468 17.7767 18.6033C17.0008 19.1598 16.068 19.455 15.1132 19.4464C14.1584 19.4377 13.2311 19.1256 12.4655 18.5551C11.6998 17.9846 11.1354 17.1854 10.854 16.273C10.5725 15.3606 10.5886 14.3823 10.8998 13.4797C11.2111 12.577 11.8014 11.7967 12.5853 11.2517L12.8018 11.5631C12.0839 12.0622 11.5434 12.7767 11.2584 13.6033C10.9734 14.4299 10.9587 15.3257 11.2164 16.1612C11.4741 16.9967 11.9909 17.7286 12.6921 18.251C13.3932 18.7733 14.2423 19.0592 15.1166 19.0671C15.9909 19.075 16.8451 18.8047 17.5556 18.2951C18.2661 17.7855 18.7961 17.0632 19.069 16.2325C19.3418 15.4018 19.3434 14.5059 19.0734 13.6742C18.8034 12.8426 18.276 12.1184 17.5672 11.6064L17.7893 11.2989Z" fill="white" stroke="#FF0000"/>
<path d="M15.332 8.93268L15.4427 12.9311" stroke="#FE0101"/>
</svg>
